<svg width="16" height="16" viewBox="0 0 16 16" fill="none" xmlns="http://www.w3.org/2000/svg">
<path d="M0.411168 5.99422C0.302498 6.10591 0.242617 6.25618 0.244681 6.412C0.246744 6.56782 0.310585 6.71645 0.422174 6.82522L3.79204 10.1107L2.9959 14.75L15.4236 6.64113L12.0542 9.92615L11.9572 10.0207L11.9801 10.1543L12.7762 14.7936L12.7763 14.7938C12.807 14.9721 12.6872 15.142 12.5077 15.1729L12.5073 15.173C12.436 15.1854 12.3623 15.1737 12.3002 15.1407L12.2991 15.1401L8.13304 12.9497L8.01309 12.8867L7.89314 12.9497L3.72713 15.1401L3.72673 15.1403C3.67247 15.1689 3.61127 15.1818 3.55007 15.1774C3.48887 15.1731 3.43011 15.1516 3.38047 15.1156C3.33082 15.0795 3.29227 15.0303 3.26919 14.9734C3.24611 14.9166 3.23942 14.8544 3.24988 14.7939L3.24994 14.7936L4.04609 10.1543L4.06901 10.0207L3.97198 9.92615L0.602112 6.64066L0.602095 6.64065C0.539428 6.57956 0.503576 6.49609 0.502417 6.40859C0.50126 6.32123 0.534771 6.23698 0.5956 6.17429M0.411168 5.99422L0.595262 6.17463C0.595375 6.17452 0.595487 6.1744 0.5956 6.17429M0.411168 5.99422L0.595914 6.17396C0.595809 6.17407 0.595704 6.17418 0.5956 6.17429M0.411168 5.99422C0.501055 5.9025 0.618459 5.84196 0.74687 5.82362L5.40452 5.14671L7.48661 0.925658C7.63153 0.635817 7.98374 0.516578 8.27358 0.659664L15.4238 6.64097C15.4757 6.58999 15.5093 6.52423 15.5194 6.45307L15.5199 6.45021C15.5471 6.27354 15.4243 6.10592 15.2418 6.07863C15.2416 6.07861 15.2415 6.07859 15.2414 6.07858L10.5846 5.40179L10.4505 5.38229L10.3905 5.26073L8.30841 1.03968L8.3083 1.03946C8.27655 0.974941 8.2243 0.922688 8.15978 0.89094L8.15948 0.890793C7.99779 0.810969 7.79946 0.877035 7.71742 1.0404C7.71733 1.04058 7.71724 1.04076 7.71715 1.04093L5.63568 5.26073L5.57572 5.38229L5.44159 5.40179L0.783942 6.0787L0.783323 6.07879C0.71224 6.08894 0.646549 6.12245 0.5956 6.17429" stroke="#FECB1C" stroke-width="0.515517"/>
</svg>
