<svg width="17" height="16" viewBox="0 0 17 16" fill="none" xmlns="http://www.w3.org/2000/svg">
<path d="M15.7207 5.82362L11.0631 5.14671L8.98098 0.925658C8.92412 0.810089 8.83056 0.716532 8.71499 0.659664C8.42515 0.516578 8.07293 0.635817 7.92801 0.925658L5.84592 5.14671L1.18828 5.82362C1.05987 5.84196 0.942461 5.9025 0.852574 5.99422C0.743905 6.10591 0.684023 6.25618 0.686087 6.412C0.688151 6.56782 0.751991 6.71645 0.86358 6.82522L4.23345 10.1107L3.4373 14.75C3.41863 14.8579 3.43057 14.9689 3.47177 15.0704C3.51297 15.1719 3.58178 15.2598 3.6704 15.3241C3.75902 15.3885 3.8639 15.4268 3.97314 15.4345C4.08239 15.4423 4.19163 15.4194 4.28848 15.3682L8.4545 13.1779L12.6205 15.3682C12.7343 15.4288 12.8663 15.4489 12.9929 15.4269C13.3121 15.3719 13.5267 15.0692 13.4717 14.75L12.6755 10.1107L16.0454 6.82522C16.1371 6.73533 16.1977 6.61793 16.216 6.48952C16.2655 6.16849 16.0417 5.87131 15.7207 5.82362Z" fill="#FECB1C"/>
</svg>
